<svg xmlns="http://www.w3.org/2000/svg" viewBox="0 0 400 150" width="400" height="150">
  <!-- BMW M4 Drift Car Illustration -->
  <defs>
    <!-- Underglow Gradient -->
    <linearGradient id="underglow" x1="0%" y1="0%" x2="100%" y2="0%">
      <stop offset="0%" style="stop-color:#00F0FF;stop-opacity:0.8" />
      <stop offset="50%" style="stop-color:#B537F2;stop-opacity:0.8" />
      <stop offset="100%" style="stop-color:#FF006E;stop-opacity:0.8" />
    </linearGradient>
    
    <!-- Headlight Beam -->
    <radialGradient id="headlightBeam" cx="50%" cy="50%" r="50%">
      <stop offset="0%" style="stop-color:#FFFFFF;stop-opacity:0.9" />
      <stop offset="100%" style="stop-color:#FFE600;stop-opacity:0" />
    </radialGradient>
  </defs>
  
  <!-- Car Body (Drift Stance - 15deg rotation) -->
  <g id="bmw-body" transform="rotate(-8 200 75)">
    <!-- Main Body -->
    <path d="M 80,80 L 120,60 L 250,60 L 300,70 L 320,85 L 310,105 L 80,105 Z" 
          fill="#2C3E50" stroke="#1A252F" stroke-width="2"/>
    
    <!-- Roof -->
    <path d="M 140,60 L 160,45 L 220,45 L 240,60" 
          fill="#34495E" stroke="#1A252F" stroke-width="2"/>
    
    <!-- Windows -->
    <path d="M 145,50 L 158,48 L 158,60 L 145,60 Z" 
          fill="#5DADE2" fill-opacity="0.6" stroke="#2980B9" stroke-width="1"/>
    <path d="M 165,48 L 215,48 L 235,60 L 165,60 Z" 
          fill="#5DADE2" fill-opacity="0.6" stroke="#2980B9" stroke-width="1"/>
    
    <!-- M4 Badge/Stripes -->
    <rect x="200" y="70" width="5" height="25" fill="#0066FF"/>
    <rect x="207" y="70" width="5" height="25" fill="#FF0000"/>
    <rect x="214" y="70" width="5" height="25" fill="#FFD700"/>
    
    <!-- Front Details -->
    <path d="M 290,72 L 315,75 L 315,85 L 290,83 Z" 
          fill="#E74C3C" stroke="#C0392B" stroke-width="1"/>
    
    <!-- Side Details -->
    <line x1="100" y1="85" x2="280" y2="85" stroke="#1A252F" stroke-width="3"/>
    <line x1="120" y1="90" x2="270" y2="90" stroke="#7F8C8D" stroke-width="1"/>
    
    <!-- Door -->
    <rect x="165" y="75" width="60" height="25" fill="none" stroke="#1A252F" stroke-width="1.5"/>
    
    <!-- Headlights -->
    <ellipse cx="305" cy="78" rx="8" ry="5" fill="#FFE600" opacity="0.9"/>
    <ellipse cx="305" cy="86" rx="8" ry="5" fill="#FFE600" opacity="0.9"/>
  </g>
  
  <!-- Wheels -->
  <g id="wheels">
    <!-- Rear Wheel -->
    <g transform="rotate(-8 140 105)">
      <circle cx="140" cy="105" r="18" fill="#2C3E50" stroke="#1A252F" stroke-width="2"/>
      <circle cx="140" cy="105" r="12" fill="#34495E"/>
      <circle cx="140" cy="105" r="6" fill="#7F8C8D"/>
      <!-- Spokes -->
      <line x1="140" y1="99" x2="140" y2="111" stroke="#BDC3C7" stroke-width="1.5"/>
      <line x1="134" y1="105" x2="146" y2="105" stroke="#BDC3C7" stroke-width="1.5"/>
      <line x1="135" y1="100" x2="145" y2="110" stroke="#BDC3C7" stroke-width="1"/>
      <line x1="135" y1="110" x2="145" y2="100" stroke="#BDC3C7" stroke-width="1"/>
    </g>
    
    <!-- Front Wheel -->
    <g transform="rotate(-8 270 105)">
      <circle cx="270" cy="105" r="18" fill="#2C3E50" stroke="#1A252F" stroke-width="2"/>
      <circle cx="270" cy="105" r="12" fill="#34495E"/>
      <circle cx="270" cy="105" r="6" fill="#7F8C8D"/>
      <!-- Spokes -->
      <line x1="270" y1="99" x2="270" y2="111" stroke="#BDC3C7" stroke-width="1.5"/>
      <line x1="264" y1="105" x2="276" y2="105" stroke="#BDC3C7" stroke-width="1.5"/>
      <line x1="265" y1="100" x2="275" y2="110" stroke="#BDC3C7" stroke-width="1"/>
      <line x1="265" y1="110" x2="275" y2="100" stroke="#BDC3C7" stroke-width="1"/>
    </g>
  </g>
  
  <!-- Underglow Effect -->
  <ellipse cx="200" cy="115" rx="120" ry="8" fill="url(#underglow)" opacity="0.7">
    <animate attributeName="opacity" values="0.5;0.9;0.5" dur="2s" repeatCount="indefinite"/>
  </ellipse>
  
  <!-- Headlight Beams -->
  <g opacity="0.6">
    <ellipse cx="350" cy="78" rx="45" ry="15" fill="url(#headlightBeam)"/>
    <ellipse cx="350" cy="86" rx="45" ry="15" fill="url(#headlightBeam)"/>
  </g>
</svg>
